<mxfile host="app.diagrams.net" modified="2023-05-31T07:09:31.705Z" agent="Mozilla/5.0 (Windows NT 10.0; Win64; x64) AppleWebKit/537.36 (KHTML, like Gecko) Chrome/114.0.0.0 Safari/537.36" version="21.3.6" etag="rS8LFe8-ajZFXCfssKtO" type="github">
  <diagram name="Page-1" id="539P-jaixyybbMJMtjgj">
    <mxGraphModel>
      <root>
        <mxCell id="0" />
        <mxCell id="1" parent="0" />
      </root>
    </mxGraphModel>
  </diagram>
</mxfile>
